<svg xmlns="http://www.w3.org/2000/svg" xmlns:xlink="http://www.w3.org/1999/xlink" width="100" height="100" viewBox="0 0 100 100"><defs><clipPath id="a"><rect width="100" height="100" transform="translate(-1371 1165)" fill="#626262"/></clipPath></defs><g transform="translate(1371 -1165)" clip-path="url(#a)"><g transform="translate(-1364.749 1165.003)"><path d="M81.41,20.417,49.842,1.675a11.89,11.89,0,0,0-12.181,0L6.087,20.417A12.592,12.592,0,0,0,0,31.265V68.743A12.592,12.592,0,0,0,6.087,79.584L37.655,98.32a11.9,11.9,0,0,0,12.181,0L81.4,79.584A12.592,12.592,0,0,0,87.5,68.736V31.265A12.592,12.592,0,0,0,81.41,20.417Z" fill="#fff"/><path d="M81.41,20.417,49.842,1.675a11.89,11.89,0,0,0-12.181,0L6.087,20.417A12.592,12.592,0,0,0,0,31.265V68.743A12.592,12.592,0,0,0,6.087,79.584L37.655,98.32a11.9,11.9,0,0,0,12.181,0L81.4,79.584A12.592,12.592,0,0,0,87.5,68.736V31.265A12.592,12.592,0,0,0,81.41,20.417ZM38.761,96.4,7.193,77.668a10.392,10.392,0,0,1-5.006-8.925V31.265a10.386,10.386,0,0,1,5.006-8.925L38.761,3.6a9.735,9.735,0,0,1,9.975,0L80.279,22.339a10.322,10.322,0,0,1,4.848,7.219c-1.049-2.231-3.407-2.845-6.157-1.264L49.128,46.777c-3.723,2.168-6.467,4.614-6.473,9.1v36.8c0,2.687,1.081,4.425,2.75,4.937a9.672,9.672,0,0,1-1.656.158A9.779,9.779,0,0,1,38.761,96.4Z" fill="#2f3a3e"/><path d="M73.136,72.365l-7.864,4.7a.575.575,0,0,0-.36.512v2.067c0,.253.171.354.379.234l7.984-4.855a.632.632,0,0,0,.24-.632V72.58c-.006-.234-.19-.335-.379-.215Z" fill="#3ab14a"/><path d="M56.4,55.051c.253-.126.461,0,.468.36l.025,2.743a5.057,5.057,0,0,1,3.022-.367c.2.051.278.316.2.632l-.6,2.408a1.037,1.037,0,0,1-.272.48.632.632,0,0,1-.158.114.36.36,0,0,1-.234.038,4.008,4.008,0,0,0-2.914.468,3.66,3.66,0,0,0-2.156,3.243c0,1.264.632,1.612,2.838,1.65,2.914.051,4.178,1.321,4.21,4.26a10.449,10.449,0,0,1-3.869,7.883l.051,2.693a.986.986,0,0,1-.461.822l-1.593.917c-.253.126-.461,0-.468-.354V80.393a5.19,5.19,0,0,1-3.635.348c-.164-.063-.24-.31-.171-.594l.575-2.434a1.018,1.018,0,0,1,.284-.506.632.632,0,0,1,.152-.107.316.316,0,0,1,.259,0,4.425,4.425,0,0,0,3.344-.424,4.374,4.374,0,0,0,2.472-3.793c0-1.365-.752-1.934-2.528-1.947-2.295,0-4.425-.442-4.469-3.793a9.8,9.8,0,0,1,3.7-7.5l-.114-2.756a.98.98,0,0,1,.461-.834Z" fill="#fff"/></g></g></svg>