<svg xmlns="http://www.w3.org/2000/svg" xmlns:xlink="http://www.w3.org/1999/xlink" width="160" height="100" viewBox="0 0 160 100"><defs><clipPath id="a"><rect width="100" height="100" transform="translate(-1491 925)" fill="#626262"/></clipPath><clipPath id="b"><rect width="100" height="100" transform="translate(-1611 925)" fill="#626262"/></clipPath></defs><g transform="translate(851 -1335)"><g transform="translate(700 410)" clip-path="url(#a)"><g transform="translate(-1463.389 924.859)"><path d="M24.665,100.141,22,99.231s.325-13.571-4.546-14.544c-3.246-3.767.521-159.737,12.208-.52,0,0-4.026,2.012-4.74,5.455-.78,3.378-.26,10.52-.26,10.52Z" fill="#fff" fill-rule="evenodd"/><path d="M24.665,100.141,22,99.231s.325-13.571-4.546-14.544c-3.246-3.767.521-159.737,12.208-.52,0,0-4.026,2.012-4.74,5.455-.78,3.378-.26,10.52-.26,10.52Z" fill="#a6a385" fill-rule="evenodd"/><path d="M26.094,87.024S49.406,71.7,43.95,39.816c-5.259-23.18-17.662-30.777-19.025-33.7A32.78,32.78,0,0,1,22,.4l.975,64.478c0,.065-2.013,19.74,3.117,22.144" fill="#fff" fill-rule="evenodd"/><path d="M26.094,87.024S49.406,71.7,43.95,39.816c-5.259-23.18-17.662-30.777-19.025-33.7A32.78,32.78,0,0,1,22,.4l.975,64.478c0,.065-2.013,19.74,3.117,22.144" fill="#499d4a" fill-rule="evenodd"/><path d="M20.64,87.868S-1.243,72.933.056,46.636C1.289,20.335,16.747,7.416,19.73,5.078,21.679,3,21.743,2.221,21.874.141c1.364,2.922,1.1,43.7,1.3,48.505C23.756,67.154,22.133,84.362,20.64,87.868Z" fill="#fff" fill-rule="evenodd"/><path d="M20.64,87.868S-1.243,72.933.056,46.636C1.289,20.335,16.747,7.416,19.73,5.078,21.679,3,21.743,2.221,21.874.141c1.364,2.922,1.1,43.7,1.3,48.505C23.756,67.154,22.133,84.362,20.64,87.868Z" fill="#58aa50" fill-rule="evenodd"/></g></g><g transform="translate(760 410)" clip-path="url(#b)"><g transform="translate(-1609.61 924.862)"><path d="M96.851,60.041a4.921,4.921,0,0,0-4.085-3.291,9.354,9.354,0,0,0-3.26.18,29.3,29.3,0,0,1-5.023.66A96.875,96.875,0,0,0,94.739,33.2c3.4-13.175,1.585-19.177-.54-21.892C88.575,4.12,80.37.259,70.472.141A42.046,42.046,0,0,0,58.138,1.869a45.922,45.922,0,0,0-7.212-.66A23.447,23.447,0,0,0,38.363,4.3,57.282,57.282,0,0,0,29.49,2.077C20.814.653,13.822,1.763,8.708,5.376,2.515,9.75-.356,17.351.175,27.966c.169,3.37,2.054,13.625,5.022,23.35a80.641,80.641,0,0,0,5.407,13.8c2.669,5.057,5.525,8.035,8.73,9.1a8.582,8.582,0,0,0,8.5-1.842,7.429,7.429,0,0,0,1.787,1.537,11.886,11.886,0,0,0,3.371,1.42,18.1,18.1,0,0,0,11.784-.7c.021.612.038,1.2.051,1.7.023.819.046,1.622.076,2.374.2,5.079.55,9.029,1.573,11.792.056.152.132.384.212.629a14.2,14.2,0,0,0,3.538,6.233,10.554,10.554,0,0,0,7.465,2.776,16.777,16.777,0,0,0,3.49-.388c3.73-.8,7.965-2.017,11.03-6.38,2.9-4.125,4.305-10.337,4.56-20.125.033-.277.063-.541.093-.793l.061-.517.682.06.176.012a27.006,27.006,0,0,0,11.3-1.957c2.254-1.046,9.477-4.859,7.777-10.008"/><path d="M90.356,61.042c-11.3,2.33-12.072-1.494-12.072-1.494C90.21,41.852,95.2,19.389,90.893,13.892c-11.737-15-32.054-7.9-32.394-7.72l-.109.02a40.284,40.284,0,0,0-7.536-.785A18.613,18.613,0,0,0,38.925,8.977S2.681-5.954,4.367,27.756c.359,7.171,10.279,54.263,22.111,40.039,4.325-5.2,8.5-9.6,8.5-9.6a10.969,10.969,0,0,0,7.164,1.829l.2-.172a7.893,7.893,0,0,0,.081,2.025c-3.048,3.406-2.152,4-8.246,5.258-6.166,1.271-2.544,3.533-.179,4.125,2.867.717,9.5,1.732,13.981-4.542l-.179.716c1.194.957,2.033,6.222,1.892,11s-.234,8.051.706,10.61,1.879,8.319,9.89,6.6c6.693-1.434,10.162-5.152,10.645-11.352.342-4.408,1.117-3.756,1.166-7.7l.622-1.866c.717-5.975.114-7.9,4.237-7.007l1,.088a22.842,22.842,0,0,0,9.339-1.572c5.02-2.33,8-6.22,3.047-5.2h0" fill="#336791"/><path d="M41.047,30.963a3.5,3.5,0,0,0-2.406.343.883.883,0,0,0-.365.587,1.715,1.715,0,0,0,.416,1.123,3.145,3.145,0,0,0,2,1.246,2.274,2.274,0,0,0,.32.022,2.589,2.589,0,0,0,2.452-1.668c.123-.887-1.164-1.479-2.414-1.652m33.72.028c-.1-.7-1.335-.894-2.509-.73s-2.31.693-2.215,1.39a2.381,2.381,0,0,0,2.213,1.467,2.115,2.115,0,0,0,.3-.021,2.853,2.853,0,0,0,1.61-.881,1.775,1.775,0,0,0,.6-1.225" fill="#fff"/><path d="M94.114,60.777c-.431-1.3-1.817-1.721-4.12-1.246-6.838,1.411-9.287.434-10.091-.158A94.026,94.026,0,0,0,91.95,32.355a51.335,51.335,0,0,0,1.785-11.618c.056-3.594-.556-6.235-1.819-7.849C86.826,6.385,79.356,2.9,70.313,2.8A37.012,37.012,0,0,0,57.825,4.769a31.132,31.132,0,0,0-7.027-.9A20.3,20.3,0,0,0,38.757,7.186,53.753,53.753,0,0,0,28.971,4.62C21.044,3.344,14.745,4.311,10.25,7.5c-5.364,3.8-7.84,10.593-7.36,20.19.161,3.229,2,13.161,4.9,22.673,3.822,12.52,7.976,19.607,12.346,21.065a5.53,5.53,0,0,0,1.752.29c1.594,0,3.549-.719,5.583-3.164q3.721-4.464,7.7-8.707a12.4,12.4,0,0,0,5.536,1.489c0,.051.009.1.013.151q-.5.594-.976,1.206c-1.338,1.7-1.616,2.052-5.922,2.938-1.225.253-4.478.923-4.526,3.2-.052,2.491,3.845,3.538,4.289,3.649a18.371,18.371,0,0,0,4.46.578,12.978,12.978,0,0,0,8.931-3.335c-.075,8.882.3,17.634,1.362,20.3.874,2.183,3.007,7.518,9.747,7.518a15.636,15.636,0,0,0,3.275-.372c7.034-1.508,10.089-4.617,11.27-11.471.632-3.663,1.717-12.41,2.228-17.1a13.783,13.783,0,0,0,3.963.49,23.588,23.588,0,0,0,9-1.714c2.542-1.18,7.128-4.077,6.3-6.593ZM77.363,29.072a28.456,28.456,0,0,1-.416,3.955,36.531,36.531,0,0,0-.5,4.643,35.209,35.209,0,0,0,.368,5.251c.421,3.5.853,7.107-.819,10.664a13.867,13.867,0,0,1-.741-1.523c-.208-.5-.659-1.313-1.284-2.432-2.43-4.359-8.122-14.565-5.208-18.73.868-1.24,3.07-2.514,8.6-1.828Zm-6.7-23.467c8.1.179,14.512,3.21,19.05,9.009,3.48,4.448-.352,24.686-11.447,42.146q-.167-.213-.336-.424l-.141-.175c2.867-4.735,2.307-9.42,1.807-13.573a32.549,32.549,0,0,1-.349-4.827,34.187,34.187,0,0,1,.468-4.307,27.2,27.2,0,0,0,.438-5.331,2.209,2.209,0,0,0,.046-.751c-.18-1.916-2.368-7.651-6.827-12.841A30.752,30.752,0,0,0,62.518,6.371a36.594,36.594,0,0,1,8.144-.766ZM25.323,66.76c-2.241,2.694-3.788,2.178-4.3,2.008-3.316-1.106-7.163-8.114-10.555-19.227-2.935-9.616-4.65-19.285-4.786-22-.428-8.575,1.65-14.551,6.179-17.763,7.37-5.226,19.486-2.1,24.354-.512-.07.069-.143.134-.212.2-7.989,8.068-7.8,21.854-7.78,22.7,0,.325.027.785.064,1.419A57.033,57.033,0,0,1,28,45.11a14.57,14.57,0,0,0,3.84,12.195q.473.493.994.937c-1.369,1.466-4.344,4.708-7.51,8.517ZM33.86,55.369A11.788,11.788,0,0,1,30.771,45.5a59.625,59.625,0,0,0,.312-12.074c-.02-.338-.038-.634-.048-.868,1.167-1.035,6.576-3.933,10.433-3.049a4.245,4.245,0,0,1,3.278,3.663c2.308,10.673.305,15.122-1.3,18.7-.332.736-.645,1.433-.912,2.153l-.207.557a36.494,36.494,0,0,0-1.316,3.959,9.958,9.958,0,0,1-7.147-3.168Zm.4,14.394a6.188,6.188,0,0,1-1.867-.8,9.119,9.119,0,0,1,1.989-.592c5.065-1.043,5.848-1.779,7.556-3.948.392-.5.836-1.061,1.45-1.748h0c.916-1.025,1.335-.852,2.094-.536a2.962,2.962,0,0,1,1.458,1.875,2.088,2.088,0,0,1-.179,1.755C43.2,70.762,38,70.7,34.265,69.763ZM60.774,94.432c-6.2,1.328-8.391-1.834-9.837-5.449C50,86.65,49.545,76.127,49.871,64.506a1.4,1.4,0,0,0-.06-.444,5.866,5.866,0,0,0-.173-.821,5.673,5.673,0,0,0-3.078-3.692,4.341,4.341,0,0,0-2.833-.343,34.234,34.234,0,0,1,1.22-3.651l.209-.56c.235-.632.529-1.286.841-1.979,1.684-3.74,3.989-8.863,1.487-20.437-.937-4.335-4.068-6.452-8.813-5.96a20.336,20.336,0,0,0-6.746,2.1c-.279.141-.534.278-.773.411C31.513,24.762,32.882,16.6,38,11.435c3.224-3.251,7.518-4.857,12.749-4.77A27.024,27.024,0,0,1,71.4,16.532a31.337,31.337,0,0,1,5.65,9.689c-5.224-.531-8.777.5-10.578,3.075-3.918,5.6,2.144,16.473,5.057,21.7.534.957,1,1.785,1.141,2.137a19.4,19.4,0,0,0,3.074,4.955c.275.343.542.676.744.967-1.582.456-4.424,1.51-4.165,6.778-.209,2.643-1.694,15.019-2.449,19.392-1,5.777-3.122,7.928-9.1,9.21Zm25.866-29.6a20.409,20.409,0,0,1-6.9,1.435c-2.841.133-4.287-.318-4.627-.6-.16-3.283,1.062-3.626,2.355-3.989.2-.057.4-.113.593-.18a4.832,4.832,0,0,0,.392.287c2.283,1.507,6.356,1.67,12.106.483l.063-.013a15.48,15.48,0,0,1-3.984,2.572Z" fill="#fff"/></g></g></g></svg>