<svg xmlns="http://www.w3.org/2000/svg" xmlns:xlink="http://www.w3.org/1999/xlink" width="100" height="100" viewBox="0 0 100 100"><defs><clipPath id="a"><rect width="100" height="100" transform="translate(-1251 1405)" fill="#959595"/></clipPath></defs><g transform="translate(1251 -1405)" clip-path="url(#a)"><g transform="translate(-1251.973 1405)"><path d="M88.2,30.014H74.3V26.208h23.11V4.686h-4.68V0H55.141V4.685H50.606V34.7h-4.68v4.539H39.052v4.685H32.178v4.685H27.5v4.539H19.014V48.462H14.48V43.924H9.8V34.7H4.534V63.1H9.068v4.685h4.68v4.539h4.534v4.685h4.68v4.539H27.5V100h9.946V94.728H32.909V90.776h4.534V86.237h4.68V81.552h3.8v4.685h4.68V100h9.946V94.728h-4.68V77.012h4.68V72.328h4.534V65.447h4.68V49.341h3.8V53.88h5.412V43.924H69.768V35.432H88.2Z" fill="#535353" fill-rule="evenodd"/><path d="M59.675,6.735h5.558V12.3H59.675Z" fill="#fff" fill-rule="evenodd"/></g></g></svg>