<svg xmlns="http://www.w3.org/2000/svg" xmlns:xlink="http://www.w3.org/1999/xlink" width="100" height="100" viewBox="0 0 100 100"><defs><clipPath id="a"><rect width="100" height="100" transform="translate(-1131 1285)" fill="#626262"/></clipPath><linearGradient id="b" x1="0.5" x2="0.5" y2="1" gradientUnits="objectBoundingBox"><stop offset="0" stop-color="#fefefe"/><stop offset="1" stop-color="#e0e0e0"/></linearGradient><linearGradient id="c" x1="0.5" y1="1" x2="0.5" gradientUnits="objectBoundingBox"><stop offset="0" stop-color="#492779"/><stop offset="1" stop-color="#892793"/></linearGradient><linearGradient id="d" x1="0.5" x2="0.5" y2="1" gradientUnits="objectBoundingBox"><stop offset="0" stop-color="#892793"/><stop offset="1" stop-color="#492779"/></linearGradient></defs><g transform="translate(1131 -1285)" clip-path="url(#a)"><g transform="translate(-1131 1285)"><path d="M0,0H100V100H0Z" fill="none" fill-rule="evenodd"/><circle cx="43.75" cy="43.75" r="43.75" transform="translate(6.25 6.25)"/><circle cx="43.75" cy="43.75" r="43.75" transform="translate(6.25 6.25)" fill="rgba(255,255,255,0)" stroke="rgba(186,186,186,0.5)" stroke-width="3.125"/><circle cx="43.75" cy="43.75" r="43.75" transform="translate(6.25 6.25)" fill="url(#b)"/><g transform="translate(9.375 9.375)"><path d="M18.75,59.4A40.625,40.625,0,0,0,46.528,97.969c2.031.356,2.794-.864,2.794-1.93,0-.966-.05-4.167-.05-7.572-10.208,1.875-12.848-2.491-13.661-4.777-.456-1.169-2.437-4.777-4.164-5.742-1.422-.762-3.453-2.642-.05-2.692,3.2-.052,5.484,2.947,6.25,4.167,3.656,6.148,9.5,4.422,11.833,3.353a8.553,8.553,0,0,1,2.583-5.433c-9.039-1.016-18.484-4.522-18.484-20.07a15.825,15.825,0,0,1,4.164-10.927,14.617,14.617,0,0,1,.406-10.781s3.4-1.067,11.172,4.167a38.281,38.281,0,0,1,20.313,0C77.4,34.448,80.8,35.566,80.8,35.566a14.614,14.614,0,0,1,.406,10.772,15.733,15.733,0,0,1,4.164,10.925c0,15.6-9.5,19.055-18.534,20.072a9.63,9.63,0,0,1,2.742,7.52c0,5.438-.052,9.808-.052,11.18,0,1.066.761,2.336,2.792,1.93A40.661,40.661,0,1,0,18.75,59.4Z" transform="translate(-18.75 -18.75)"/><path d="M18.75,59.4A40.625,40.625,0,0,0,46.528,97.969c2.031.356,2.794-.864,2.794-1.93,0-.966-.05-4.167-.05-7.572-10.208,1.875-12.848-2.491-13.661-4.777-.456-1.169-2.437-4.777-4.164-5.742-1.422-.762-3.453-2.642-.05-2.692,3.2-.052,5.484,2.947,6.25,4.167,3.656,6.148,9.5,4.422,11.833,3.353a8.553,8.553,0,0,1,2.583-5.433c-9.039-1.016-18.484-4.522-18.484-20.07a15.825,15.825,0,0,1,4.164-10.927,14.617,14.617,0,0,1,.406-10.781s3.4-1.067,11.172,4.167a38.281,38.281,0,0,1,20.313,0C77.4,34.448,80.8,35.566,80.8,35.566a14.614,14.614,0,0,1,.406,10.772,15.733,15.733,0,0,1,4.164,10.925c0,15.6-9.5,19.055-18.534,20.072a9.63,9.63,0,0,1,2.742,7.52c0,5.438-.052,9.808-.052,11.18,0,1.066.761,2.336,2.792,1.93A40.661,40.661,0,1,0,18.75,59.4Z" transform="translate(-18.75 -18.75)" fill="url(#c)"/><path d="M18.75,59.4A40.625,40.625,0,0,0,46.528,97.969c2.031.356,2.794-.864,2.794-1.93,0-.966-.05-4.167-.05-7.572-10.208,1.875-12.848-2.491-13.661-4.777-.456-1.169-2.437-4.777-4.164-5.742-1.422-.762-3.453-2.642-.05-2.692,3.2-.052,5.484,2.947,6.25,4.167,3.656,6.148,9.5,4.422,11.833,3.353a8.553,8.553,0,0,1,2.583-5.433c-9.039-1.016-18.484-4.522-18.484-20.07a15.825,15.825,0,0,1,4.164-10.927,14.617,14.617,0,0,1,.406-10.781s3.4-1.067,11.172,4.167a38.281,38.281,0,0,1,20.313,0C77.4,34.448,80.8,35.566,80.8,35.566a14.614,14.614,0,0,1,.406,10.772,15.733,15.733,0,0,1,4.164,10.925c0,15.6-9.5,19.055-18.534,20.072a9.63,9.63,0,0,1,2.742,7.52c0,5.438-.052,9.808-.052,11.18,0,1.066.761,2.336,2.792,1.93A40.661,40.661,0,1,0,18.75,59.4Z" transform="translate(-18.75 -18.75)" opacity="0.92" fill="url(#d)"/></g></g></g></svg>