<svg xmlns="http://www.w3.org/2000/svg" width="177.177" height="159" viewBox="0 0 177.177 159"><g transform="translate(445.088 -1104)"><g transform="translate(1369 419)"><g transform="translate(-1725.09 660.533)"><path d="M8.026,114.474,0,24.467H88.18l-8.036,89.992L44.035,124.467Z" fill="#1572b6"/><path d="M44.09,116.819l29.177-8.091,6.861-76.9H44.09Z" fill="#33a9dc"/><path d="M44.09,64.434H58.7l1.006-11.3H44.09V42.1H71.774l-.264,2.963L68.8,75.483H44.09Z" fill="#fff"/><path d="M44.15,93.1H44.1L31.806,89.783l-.787-8.8H19.946l1.548,17.332,22.615,6.294h.065V93.1Z" fill="#ebebeb"/><path d="M57.762,75,56.433,89.773,44.12,93.094v11.5l22.63-6.274.164-1.867L68.836,75H57.762Z" fill="#fff"/><path d="M44.13,42.1V53.137H17.472l-.229-2.48-.5-5.6L16.476,42.1Zm-.04,22.336V75.473H31.936l-.214-2.48-.5-5.6-.264-2.963h13.13Z" fill="#ebebeb"/></g></g><g transform="translate(680 419)"><g transform="translate(-1125.241 660.541)"><path d="M88.329,24.459,80.3,114.449l-36.109,10.01-36.009-10-8.025-90Z" fill="#e44d26"/><path d="M44.241,116.808l29.178-8.088,6.864-76.9H44.241Z" fill="#f16529"/><path d="M28.626,53.9H44.241V42.859H16.562l.264,2.961L19.539,76.24h24.7V65.2H29.634Zm2.489,27.862H20.032L21.579,99.09l22.612,6.277.051-.014V93.868l-.048.013L31.9,90.562l-.786-8.8Z" fill="#ebebeb"/><path d="M44.2,76.238H57.8L56.515,90.554,44.2,93.877v11.484l22.63-6.272L67,97.223l2.594-29.061.269-2.964H44.2V76.237Zm0-22.369V53.9H70.867l.221-2.481.5-5.6.264-2.961H44.2V53.869Z" fill="#fff"/></g></g><g transform="translate(-16 -102)"><rect width="65" height="68" transform="translate(-373 1281)" fill="#fff"/><g transform="translate(1100 580)"><g transform="translate(-1483.279 646.084)"><path d="M6.452,128.826-1.716,38.916l87.989.034-8.1,89.808L42.21,138.916Zm65.1-4.907L78.38,46.911H42.347l.275,84.935ZM38.984,58.2H30.233l-.1,46.088L13.143,99.657l.034,10.535,25.806,6.966V58.2Z" fill="#d4b830"/><path d="M36.1,116.3c-1.132-.343-6.726-1.853-12.423-3.4l-10.329-2.78v-5.182c0-5.079,0-5.182.515-5.01.275.1,4.049,1.132,8.373,2.334l7.859,2.162.069-22.992.069-22.992h8.579V87.68c0,23.233-.069,29.238-.309,29.238-.172-.034-1.27-.309-2.4-.618Z" fill="rgba(235,235,235,0)" opacity="0.986"/><path d="M13.178,110.192l-.034-10.535s10.844,3.054,16.987,4.633l.1-46.054h8.751v58.922Z" fill="rgba(235,235,235,0.92)" opacity="0.986"/><path d="M42.347,46.877H78.38l-6.829,77.008-29.2,7.927Zm27.351,64.1,2.368-28.792-17.5,1.956V68.771L73.233,68.7l.755-10.5-28.174.137.377,38.229,17.021-2.917-.24,8.511-17.159,4.564.172,10.432L69.7,110.981Z" fill="#fdd83c"/></g></g></g></g></svg>