<svg xmlns="http://www.w3.org/2000/svg" xmlns:xlink="http://www.w3.org/1999/xlink" width="100" height="100" viewBox="0 0 100 100"><defs><clipPath id="a"><rect width="100" height="100" transform="translate(-1491 685)" fill="#626262"/></clipPath></defs><g transform="translate(1458 -536)"><g transform="translate(-1441 548)" fill="#fff" stroke="#707070" stroke-width="1"><rect width="67" height="70" stroke="none"/><rect x="0.5" y="0.5" width="66" height="69" fill="none"/></g><g transform="translate(33 -149)" clip-path="url(#a)"><g transform="translate(-1483.279 646.084)"><path d="M6.452,128.826-1.716,38.916l87.989.034-8.1,89.808L42.21,138.916Zm65.1-4.907L78.38,46.911H42.347l.275,84.935ZM38.984,58.2H30.233l-.1,46.088L13.143,99.657l.034,10.535,25.806,6.966V58.2Z" fill="#d4b830"/><path d="M36.1,116.3c-1.132-.343-6.726-1.853-12.423-3.4l-10.329-2.78v-5.182c0-5.079,0-5.182.515-5.01.275.1,4.049,1.132,8.373,2.334l7.859,2.162.069-22.992.069-22.992h8.579V87.68c0,23.233-.069,29.238-.309,29.238-.172-.034-1.27-.309-2.4-.618Z" fill="rgba(235,235,235,0)" opacity="0.986"/><path d="M13.178,110.192l-.034-10.535s10.844,3.054,16.987,4.633l.1-46.054h8.751v58.922Z" fill="rgba(235,235,235,0.92)" opacity="0.986"/><path d="M42.347,46.877H78.38l-6.829,77.008-29.2,7.927Zm27.351,64.1,2.368-28.792-17.5,1.956V68.771L73.233,68.7l.755-10.5-28.174.137.377,38.229,17.021-2.917-.24,8.511-17.159,4.564.172,10.432L69.7,110.981Z" fill="#fdd83c"/></g></g></g></svg>