<svg xmlns="http://www.w3.org/2000/svg" width="511.953" height="357.533" viewBox="0 0 511.953 357.533"><g transform="translate(-1833.328 -1035)"><g transform="translate(1958.764 1035)"><path d="M352.741,173.935a166.1,166.1,0,1,1-166.1-166.1A166.1,166.1,0,0,1,352.741,173.935Zm0,0" transform="translate(-2.975 -1.543)" fill="#d9ecf2"/><g transform="translate(29.351 6.297)"><path d="M211.423,7.84a167.127,167.127,0,0,0-19.814,1.219,166.061,166.061,0,0,1,0,329.769A166.082,166.082,0,1,0,211.423,7.84Zm0,0" transform="translate(-57.093 -7.84)" fill="#bdd9e5"/><path d="M213.926,286.559a22.748,22.748,0,1,1-22.75-22.747A22.75,22.75,0,0,1,213.926,286.559Zm0,0" transform="translate(-53.737 -44.901)" fill="#bdd9e5"/><path d="M64.968,322.708A29.126,29.126,0,0,0,34.32,273.285,166.053,166.053,0,0,0,64.968,322.708Zm0,0" transform="translate(-34.32 -45.762)" fill="#bdd9e5"/><path d="M316.351,158.306a40.576,40.576,0,1,1-40.576-40.576A40.576,40.576,0,0,1,316.351,158.306Zm0,0" transform="translate(-63.405 -23.75)" fill="#bdd9e5"/><path d="M135.292,134.486a22.925,22.925,0,1,1-22.927-22.927A22.926,22.926,0,0,1,135.292,134.486Zm0,0" transform="translate(-42.301 -22.857)" fill="#bdd9e5"/><path d="M194.543,56.26a13.184,13.184,0,0,1,13.182-13.182h99.469a167.146,167.146,0,0,1,29.395,26.365H207.725A13.182,13.182,0,0,1,194.543,56.26ZM371.272,225.593H329.046a13.181,13.181,0,1,0,0,26.361h32.047A165,165,0,0,0,371.258,225.6Zm0,0" transform="translate(-57.518 -12.942)" fill="#bdd9e5"/></g><path d="M353.31,256.5a164.808,164.808,0,0,1-9.334,24.467,13.066,13.066,0,0,0,6.7,1.887h32.047c.835-1.71,1.617-3.421,2.4-5.168.227-.511.468-1.029.682-1.53.775-1.784,1.51-3.585,2.222-5.4.16-.411.341-.822.484-1.233q1.122-2.931,2.141-5.913l.22-.651q1.072-3.2,2.031-6.454Zm0,0" transform="translate(-49.803 -37.545)" fill="#d9ecf2"/><path d="M279.9,43.078a167.043,167.043,0,0,1,29.421,26.361h39.624a167.2,167.2,0,0,0-21.461-20.425q-3.869-3.077-7.921-5.923H279.9Zm0,0" transform="translate(-40.526 -6.645)" fill="#d9ecf2"/><path d="M22.07,223.568H66.785a13.181,13.181,0,0,0,0-26.361H20.654c-.033,1.37-.107,2.759-.107,4.149A167.466,167.466,0,0,0,22.07,223.568Zm0,0" transform="translate(-2.975 -28.96)" fill="#bdd9e5"/><path d="M406.49,50.056l-20.719,7.754,6.448-21.163L378.441,19.338l22.119-.411L412.76.477l7.226,20.909,21.324,5.9L423.654,40.625l.975,22.1Zm0,0" transform="translate(-54.793 -0.477)" fill="#fabe02"/><path d="M417.906.477,416.59,26.484l10.339,5.455L413.98,40.154l15.795,22.57-.975-22.1,17.656-13.336-21.324-5.9Zm0,0" transform="translate(-59.938 -0.477)" fill="#f59a1d"/><path d="M35.976,393.445l-13.232,15.3-4.1-19.814L0,381.074l17.579-10.019,1.714-20.161,14.96,13.623,19.707-4.6-8.335,18.437L56.09,395.673Zm0,0" transform="translate(0 -51.212)" fill="#fabe02"/><path d="M22.559,350.895l8.753,22.55,11.776-1.6-5.642,12.093,21.912,11.739L48.89,378.355l8.335-18.437-19.707,4.6Zm0,0" transform="translate(-3.266 -51.212)" fill="#f59a1d"/></g><g transform="translate(2083.148 1296.084)"><path d="M223.451,236.327c0-.16-.01-.314-.01-.474a52.4,52.4,0,0,1,71.858-48.66A67.981,67.981,0,0,1,421.454,207.45,38.209,38.209,0,0,1,464.1,236.327Zm0,0" transform="translate(-223.441 -152.285)" fill="#fff"/><path d="M283.241,242.373c0-.094-.007-.18-.007-.274a30.138,30.138,0,0,1,41.321-27.982A39.092,39.092,0,0,1,397.1,225.767a21.984,21.984,0,0,1,24.524,16.6H283.241Zm0,0" transform="translate(-232.099 -158.332)" fill="#d0f6ff"/></g><g transform="translate(1833.328 1093.626)"><path d="M327.719,370.485H34.129a217.529,217.529,0,0,1-24.8-56.528,74.757,74.757,0,0,1,77.484-13.59,97.018,97.018,0,0,1,180.039,28.914,54.559,54.559,0,0,1,60.867,41.2Zm0,0" transform="translate(-9.328 -250.551)" fill="#fff"/><path d="M65.362,379.117c0-.13-.01-.257-.01-.388a43,43,0,0,1,58.97-39.931,55.788,55.788,0,0,1,103.528,16.623,31.35,31.35,0,0,1,35,23.7Zm0,0" transform="translate(-17.439 -259.18)" fill="#d0f6ff"/></g></g></svg>