<svg xmlns="http://www.w3.org/2000/svg" xmlns:xlink="http://www.w3.org/1999/xlink" width="100" height="100" viewBox="0 0 100 100"><defs><clipPath id="a"><rect width="100" height="100" transform="translate(-1251 805)" fill="#626262"/></clipPath></defs><g transform="translate(1251 -805)" clip-path="url(#a)"><g transform="translate(-1253.126 804.797)"><circle cx="9.074" cy="9.074" r="9.074" transform="translate(43.053 40.964)" fill="#00d8ff"/><path d="M52.127,22.557c12.18,0,23.5,1.748,32.028,4.684,10.279,3.538,16.6,8.9,16.6,13.761,0,5.062-6.7,10.762-17.737,14.417-8.345,2.765-19.329,4.212-30.892,4.212-11.857,0-23.08-1.355-31.522-4.24C9.928,51.739,3.5,45.967,3.5,41c0-4.819,6.036-10.141,16.171-13.674,8.564-2.984,20.16-4.771,32.461-4.771Z" transform="translate(0 9.033)" fill="none" stroke="#00d8ff" stroke-miterlimit="10" stroke-width="2.739"/><path d="M28.828,40.868c6.084-10.552,13.254-19.483,20.061-25.4C57.09,8.327,64.9,5.534,69.1,7.958c4.383,2.528,5.976,11.179,3.63,22.571-1.775,8.612-6.009,18.846-11.788,28.865-5.924,10.27-12.7,19.317-19.419,25.189-8.5,7.428-16.71,10.115-21.011,7.636-4.175-2.41-5.771-10.3-3.77-20.843C18.435,62.458,22.681,51.522,28.828,40.868Z" transform="translate(7.242)" fill="none" stroke="#00d8ff" stroke-miterlimit="10" stroke-width="2.739"/><path d="M28.833,59.379c-6.1-10.543-10.258-21.212-11.992-30.067-2.089-10.669-.612-18.828,3.592-21.26,4.381-2.537,12.669.4,21.367,8.126C48.375,22.016,55.126,30.8,60.92,40.805c5.94,10.261,10.393,20.655,12.123,29.4,2.191,11.071.417,19.53-3.88,22.017-4.171,2.414-11.8-.141-19.938-7.143C42.351,79.166,34.995,70.023,28.833,59.379Z" transform="translate(7.252 0.035)" fill="none" stroke="#00d8ff" stroke-miterlimit="10" stroke-width="2.739"/></g></g></svg>