<svg xmlns="http://www.w3.org/2000/svg" xmlns:xlink="http://www.w3.org/1999/xlink" width="100" height="100" viewBox="0 0 100 100"><defs><clipPath id="a"><rect width="100" height="100" transform="translate(-1131 805)" fill="#626262"/></clipPath></defs><g transform="translate(1131 -805)" clip-path="url(#a)"><path d="M86.062,43.09A20.6,20.6,0,0,0,77,45.2a18.648,18.648,0,0,1-2.031-4.688,12.966,12.966,0,0,1-.176-3.946,31.642,31.642,0,0,1,1.192-4.258c-.02-.176-.215-1.035-2.227-1.055s-3.75.391-3.946.918a22.433,22.433,0,0,0-.84,2.989C68.619,37,64.947,43.5,62.857,46.918A11.991,11.991,0,0,1,61.47,43.48a12.966,12.966,0,0,1-.176-3.946,31.642,31.642,0,0,1,1.192-4.258c-.02-.176-.215-1.035-2.227-1.055s-3.75.391-3.946.918-.41,1.778-.84,2.989c-.41,1.211-5.293,12.071-6.563,14.9-.645,1.445-1.211,2.6-1.621,3.379s-.02.059-.059.137c-.352.664-.547,1.035-.547,1.035v.02c-.273.488-.566.957-.7.957a6.515,6.515,0,0,1,.039-3.106c.723-3.77,2.481-9.649,2.461-9.864,0-.1.332-1.133-1.133-1.66a1.78,1.78,0,0,0-2.051.352c-.117,0-.215.313-.215.313s1.582-6.622-3.028-6.622c-2.891,0-6.876,3.145-8.848,6.016-1.25.684-3.907,2.129-6.719,3.672-1.074.586-2.188,1.211-3.242,1.778l-.215-.234C17.443,43.246,7.11,39.027,7.54,31.018c.156-2.91,1.172-10.587,19.845-19.885,15.294-7.618,27.541-5.528,29.671-.879,3.028,6.641-6.544,18.986-22.443,20.764-6.055.684-9.239-1.66-10.04-2.539-.84-.918-.957-.957-1.27-.781-.508.273-.2,1.094,0,1.582.469,1.231,2.422,3.418,5.743,4.512,2.91.957,10.02,1.485,18.615-1.836C57.29,28.225,64.81,17.873,62.6,9.22,60.357.41,45.746-2.481,31.936,2.422c-8.223,2.93-17.13,7.5-23.537,13.5C.781,23.029-.43,29.241.078,31.819c1.777,9.2,14.454,15.2,19.533,19.631-.254.137-.488.273-.7.391C16.369,53.091,6.7,58.15,4.278,63.5c-2.735,6.055.43,10.411,2.539,11,6.524,1.817,13.2-1.445,16.818-6.817,3.594-5.372,3.164-12.345,1.5-15.529l-.059-.117,1.992-1.172c1.289-.762,2.559-1.465,3.672-2.07a24.319,24.319,0,0,0-1.309,6.641c-.273,3.438,1.133,7.891,2.989,9.649a3.306,3.306,0,0,0,2.4.781c2.149,0,3.125-1.778,4.2-3.907,1.328-2.6,2.5-5.606,2.5-5.606S40.062,64.5,44.066,64.5c1.465,0,2.93-1.895,3.594-2.871v.02s.039-.059.117-.2q.123-.182.234-.371V61.04c.586-1.016,1.895-3.34,3.848-7.188C54.38,48.891,56.8,42.679,56.8,42.679a35.651,35.651,0,0,0,.957,4.024,38.551,38.551,0,0,0,2.09,4.688c-.586.82-.938,1.289-.938,1.289l.02.02c-.469.625-1,1.289-1.543,1.953-1.992,2.383-4.375,5.1-4.688,5.879a1.609,1.609,0,0,0,.43,2.149,3.909,3.909,0,0,0,2.461.391,10.964,10.964,0,0,0,3.672-.84,12.718,12.718,0,0,0,3.164-1.66,7.045,7.045,0,0,0,3.028-6.231A12.528,12.528,0,0,0,64.3,49.946c.176-.254.352-.508.527-.781A82.453,82.453,0,0,0,70.3,39.691a35.654,35.654,0,0,0,.957,4.024,28.23,28.23,0,0,0,1.777,4.024,17.365,17.365,0,0,0-5.332,6.9c-1.152,3.321-.254,4.825,1.445,5.176a5.2,5.2,0,0,0,2.676-.547A12.126,12.126,0,0,0,75.2,57.525c1.953-1.445,3.828-3.457,3.731-6.172a11.832,11.832,0,0,0-.84-3.653,19.03,19.03,0,0,1,9.688-1.113C96.473,47.6,98.192,53.032,97.86,55.3A5.836,5.836,0,0,1,95.106,59.2c-.606.371-.8.508-.742.781.078.41.352.391.879.313a6.761,6.761,0,0,0,4.727-6.036c.234-5.372-4.864-11.231-13.907-11.174Zm-67.037,22.6c-2.871,3.145-6.915,4.336-8.634,3.321-1.856-1.074-1.133-5.7,2.4-9.044a45.959,45.959,0,0,1,6.778-5.059c.41-.254,1.035-.625,1.777-1.074a2.082,2.082,0,0,1,.2-.117c.137-.078.293-.176.449-.273a12.459,12.459,0,0,1-2.969,12.247Zm21-14.279c-1,2.442-3.106,8.712-4.375,8.36-1.094-.293-1.758-5.039-.215-9.727a21.714,21.714,0,0,1,3.418-6.27c1.582-1.758,3.3-2.344,3.731-1.621.508.938-1.934,7.735-2.559,9.259Zm17.326,8.282c-.43.215-.82.371-1,.254-.137-.078.176-.371.176-.371s2.168-2.324,3.028-3.4c.488-.625,1.074-1.348,1.7-2.168v.234C61.255,57.056,58.56,58.931,57.349,59.693Zm13.361-3.047c-.313-.234-.273-.957.781-3.223a12.077,12.077,0,0,1,2.969-3.828,4.832,4.832,0,0,1,.293,1.68A5.5,5.5,0,0,1,70.709,56.646Z" transform="translate(-1130.977 817.474)" fill="#cf649a"/></g></svg>